PathFileType  4	(X/Y/Z) C:\Users\wagnerel85475\Documents\Thesis\opencap-core\Data\3375ffbc-daeb-4a43-b4f7-ac9899cd4c71\MarkerData\PreAugmentation
DataRate	CameraRate	NumFrames	NumMarkers	Units	OrigDataRate	OrigDataStartFrame	OrigNumFrames
60.0	60.0	17	20	m	60.0	481	640
Frame#	Time	Neck			RShoulder			RElbow			RWrist			LShoulder			LElbow			LWrist			midHip			RHip			RKnee			RAnkle			LHip			LKnee			LAnkle			LBigToe			LSmallToe			LHeel			RBigToe			RSmallToe			RHeel			
		X1	Y1	Z1	X2	Y2	Z2	X3	Y3	Z3	X4	Y4	Z4	X5	Y5	Z5	X6	Y6	Z6	X7	Y7	Z7	X8	Y8	Z8	X9	Y9	Z9	X10	Y10	Z10	X11	Y11	Z11	X12	Y12	Z12	X13	Y13	Z13	X14	Y14	Z14	X15	Y15	Z15	X16	Y16	Z16	X17	Y17	Z17	X18	Y18	Z18	X19	Y19	Z19	X20	Y20	Z20	

481	8.0000000	0.7972900	0.8574500	-0.0824600	0.8090800	0.8634900	0.0847300	1.0159500	0.6914900	0.1655400	1.3299600	0.7314000	0.0528400	0.8139700	0.8649200	-0.2554900	1.0999100	0.6664100	-0.3070600	1.3849300	0.7276000	-0.1547900	0.3866200	0.4559000	-0.0981300	0.3845700	0.4654600	0.0242500	0.7599800	0.2748500	0.1291300	0.5406300	-0.1851300	0.0906400	0.3610900	0.4597100	-0.2230900	0.7464300	0.2686500	-0.3137300	0.5590000	-0.1961600	-0.2680700	0.7601500	-0.2343900	-0.3283900	0.7155300	-0.2422800	-0.3544000	0.4801700	-0.2507600	-0.2632600	0.7093400	-0.2325000	0.2037100	0.6697500	-0.2306300	0.2204400	0.5139900	-0.2194700	0.0650600
482	8.0166667	0.8060300	0.8822300	-0.0877400	0.8127400	0.8874900	0.0818800	1.0195800	0.7162800	0.1669500	1.3295100	0.7466100	0.0562300	0.8238200	0.8849300	-0.2558300	1.0923700	0.6969800	-0.3060000	1.3666500	0.7421000	-0.1645200	0.3624000	0.4687500	-0.1018500	0.3671700	0.4751100	0.0180500	0.7602900	0.2793500	0.1298200	0.5408500	-0.1851500	0.0905500	0.3537000	0.4727000	-0.2201300	0.7464500	0.2774900	-0.3139400	0.5581800	-0.1944900	-0.2680000	0.7546100	-0.2362200	-0.3306900	0.7100500	-0.2401100	-0.3567100	0.4855600	-0.2468200	-0.2604400	0.7024800	-0.2382000	0.2027800	0.6630800	-0.2328000	0.2196800	0.5082000	-0.2213600	0.0630400
483	8.0333333	0.8009000	0.9093400	-0.0894800	0.8086900	0.9093300	0.0846300	1.0276700	0.7356000	0.1805800	1.3263800	0.7704400	0.0550700	0.8178200	0.9068500	-0.2625200	1.0724600	0.7217600	-0.3119500	1.3644900	0.7650800	-0.1636600	0.3739600	0.4924200	-0.0974100	0.3829700	0.4923900	0.0194900	0.7548400	0.2822400	0.1322400	0.5347000	-0.1870900	0.0888500	0.3559000	0.4940900	-0.2206100	0.7457300	0.2869500	-0.3136300	0.5588900	-0.1919500	-0.2674000	0.7551000	-0.2342900	-0.3309700	0.7154000	-0.2382900	-0.3544200	0.4916300	-0.2454700	-0.2622200	0.6986000	-0.2381400	0.2050800	0.6630700	-0.2327100	0.2195800	0.5081500	-0.2198500	0.0628600
484	8.0500000	0.7997600	0.9315700	-0.0897400	0.7878200	0.9319800	0.0810200	0.9945800	0.7690000	0.1586200	1.3072800	0.7917000	0.0482500	0.8111600	0.9354600	-0.2653200	1.0800000	0.7429000	-0.3124400	1.3341000	0.7911600	-0.1547700	0.3614500	0.5072600	-0.1018200	0.3642100	0.5111200	0.0185700	0.7509100	0.2869500	0.1347500	0.5407100	-0.1828000	0.0909300	0.3474600	0.5134700	-0.2177700	0.7407000	0.2945700	-0.3116300	0.5580200	-0.1902900	-0.2681000	0.7593400	-0.2326000	-0.3288200	0.7149900	-0.2383400	-0.3544500	0.4854700	-0.2425300	-0.2650400	0.7038200	-0.2363000	0.2066500	0.6691700	-0.2326200	0.2209500	0.5082800	-0.2213100	0.0630200
485	8.0666667	0.7953300	0.9517600	-0.0873000	0.7884700	0.9576400	0.0859000	1.0177100	0.7860100	0.1584600	1.2962500	0.8159900	0.0433400	0.8114900	0.9624200	-0.2650900	1.0675400	0.7678400	-0.3142700	1.3677600	0.8047500	-0.1613000	0.3786000	0.5295200	-0.1049500	0.3813900	0.5236700	0.0147400	0.7410500	0.2902900	0.1395100	0.5404000	-0.1828000	0.0910200	0.3657100	0.5343100	-0.2259300	0.7302100	0.2915000	-0.3115000	0.5534700	-0.1937400	-0.2703700	0.7649600	-0.2287600	-0.3262100	0.7154300	-0.2361200	-0.3540500	0.4858100	-0.2469400	-0.2652500	0.6938900	-0.2399000	0.2077500	0.6691200	-0.2325300	0.2208700	0.5081200	-0.2213500	0.0632100
486	8.0833333	0.7943800	0.9819700	-0.0877000	0.7861300	0.9845300	0.0859100	1.0051200	0.8037600	0.1661100	1.3021200	0.8344700	0.0425300	0.8000900	0.9866200	-0.2656500	1.0656600	0.7823500	-0.3150600	1.3502500	0.8303100	-0.1641500	0.3732200	0.5371700	-0.1020600	0.3813600	0.5451200	0.0151600	0.7363000	0.2951800	0.1377300	0.5347800	-0.1847900	0.0891800	0.3699600	0.5460200	-0.2231700	0.7305400	0.2962500	-0.3116900	0.5580000	-0.1902900	-0.2681000	0.7643100	-0.2288200	-0.3262800	0.7148700	-0.2342800	-0.3545200	0.4856700	-0.2449300	-0.2646600	0.6933500	-0.2399700	0.2076900	0.6629400	-0.2326600	0.2197200	0.5081500	-0.2242100	0.0637100
487	8.1000000	0.7889300	1.0091000	-0.0894900	0.7599200	1.0059400	0.0857900	0.9912700	0.8341000	0.1572900	1.2956800	0.8555900	0.0391000	0.8003400	1.0030000	-0.2699100	1.0618400	0.8117200	-0.3167700	1.3479600	0.8434300	-0.1665000	0.3784400	0.5582100	-0.0959500	0.3885800	0.5575000	0.0213100	0.7351100	0.3016600	0.1378800	0.5345100	-0.1847400	0.0892200	0.3633700	0.5607300	-0.2166300	0.7250800	0.2962400	-0.3096500	0.5587000	-0.1856200	-0.2678200	0.7600600	-0.2305300	-0.3284400	0.7104500	-0.2338100	-0.3563500	0.4920300	-0.2332000	-0.2615900	0.7031400	-0.2360900	0.2024700	0.6675000	-0.2287100	0.2173300	0.5081100	-0.2229600	0.0635800
488	8.1166667	0.7878800	1.0324200	-0.0896500	0.7657700	1.0269800	0.0869900	0.9958900	0.8583300	0.1630900	1.2894700	0.8774800	0.0414700	0.7937700	1.0325700	-0.2681800	1.0552900	0.8365700	-0.3241100	1.3230700	0.8721900	-0.1615800	0.3908900	0.5736100	-0.0957100	0.3943700	0.5782300	0.0240600	0.7254000	0.3033700	0.1388800	0.5347300	-0.1847200	0.0891500	0.3797000	0.5746800	-0.2188700	0.7253100	0.2970700	-0.3097300	0.5579000	-0.1840800	-0.2685000	0.7594400	-0.2305700	-0.3284900	0.7098500	-0.2318700	-0.3560800	0.4917500	-0.2330500	-0.2613600	0.7084600	-0.2340200	0.2040400	0.6734500	-0.2267200	0.2190000	0.5083600	-0.2197100	0.0626400
489	8.1333333	0.7831600	1.0548800	-0.0871400	0.7607800	1.0541500	0.0899700	1.0066600	0.8750200	0.1703900	1.2869200	0.9031100	0.0401900	0.7935700	1.0625600	-0.2681200	1.0386500	0.8669700	-0.3239000	1.3167400	0.8806800	-0.1749800	0.3895700	0.5936000	-0.1014300	0.3998900	0.5907300	0.0206700	0.7244000	0.3038600	0.1392000	0.5403400	-0.1827400	0.0910100	0.3867500	0.6037800	-0.2219400	0.7195300	0.2971000	-0.3071300	0.5532100	-0.1853800	-0.2704300	0.7551900	-0.2322400	-0.3306300	0.7104000	-0.2338100	-0.3563500	0.4804700	-0.2325800	-0.2616100	0.7074800	-0.2319200	0.2002200	0.6720600	-0.2249700	0.2149900	0.5080400	-0.2171300	0.0632400
490	8.1500000	0.7670100	1.0779300	-0.0893100	0.7489600	1.0752400	0.0904900	0.9763800	0.8970100	0.1642100	1.2847800	0.9239900	0.0397400	0.7877100	1.0843800	-0.2707800	1.0414000	0.8762900	-0.3266500	1.3030600	0.9104200	-0.1717100	0.4021800	0.6112400	-0.0962600	0.4179800	0.6113700	0.0226000	0.7137300	0.3037600	0.1360200	0.5354000	-0.1803800	0.0935700	0.4021300	0.6160700	-0.2147000	0.7147000	0.3007100	-0.3050600	0.5523100	-0.1837000	-0.2703800	0.7496300	-0.2361400	-0.3332400	0.7098300	-0.2359300	-0.3560800	0.4921000	-0.2310400	-0.2610200	0.7021700	-0.2355700	0.2031400	0.6712800	-0.2256900	0.2107600	0.5028000	-0.2189400	0.0656900
491	8.1666667	0.7508100	1.1048800	-0.0954200	0.7386000	1.1048300	0.0914200	0.9936100	0.9189000	0.1659200	1.2791100	0.9486100	0.0369200	0.7824200	1.1009400	-0.2774000	1.0340100	0.9003700	-0.3347900	1.2972200	0.9339300	-0.1687600	0.4073000	0.6301800	-0.0948200	0.4165500	0.6277500	0.0223700	0.7015800	0.3051700	0.1323100	0.5294400	-0.1847000	0.0914600	0.4040800	0.6324700	-0.2150300	0.7189500	0.3133600	-0.3027600	0.5529800	-0.1790300	-0.2701000	0.7455400	-0.2358600	-0.3350500	0.7057400	-0.2333600	-0.3575500	0.5032800	-0.2232000	-0.2568000	0.7027900	-0.2338000	0.2027900	0.6712400	-0.2256300	0.2106800	0.5028400	-0.2217200	0.0655100
492	8.1833333	0.7348500	1.1266800	-0.0930400	0.7379500	1.1273100	0.0909800	1.0050800	0.9393000	0.1701700	1.2720400	0.9639900	0.0386500	0.7805900	1.1291000	-0.2778600	1.0275800	0.9253100	-0.3334600	1.2944000	0.9514200	-0.1714400	0.4075900	0.6452300	-0.0943300	0.4172300	0.6431700	0.0226600	0.7014900	0.3102400	0.1273200	0.5295600	-0.1865200	0.0917400	0.4014300	0.6471600	-0.2101300	0.7095700	0.3115700	-0.2989700	0.5524100	-0.1795000	-0.2711400	0.7499300	-0.2322600	-0.3325400	0.7051800	-0.2335100	-0.3576300	0.4972400	-0.2268100	-0.2591500	0.6965600	-0.2318300	0.2011900	0.6664900	-0.2274300	0.2133900	0.5028400	-0.2232300	0.0656600
493	8.2000000	0.7350500	1.1454700	-0.0929100	0.7426000	1.1506000	0.0887400	0.9836200	0.9700800	0.1703000	1.2391900	0.9887300	0.0247500	0.7551400	1.1489900	-0.2801800	1.0277900	0.9447100	-0.3331400	1.2844500	0.9705300	-0.1832200	0.4067400	0.6571400	-0.0947900	0.4178600	0.6594100	0.0267700	0.7005700	0.3084600	0.1273400	0.5292200	-0.1865900	0.0918300	0.4029200	0.6564200	-0.2104400	0.6931400	0.3132200	-0.2918800	0.5475100	-0.1787500	-0.2726800	0.7511100	-0.2322300	-0.3317400	0.7060900	-0.2352100	-0.3571300	0.4982600	-0.2274300	-0.2586600	0.7071200	-0.2288700	0.1951400	0.6761300	-0.2220400	0.2076600	0.5025200	-0.2248800	0.0662500
494	8.2166667	0.7237000	1.1742500	-0.0930100	0.7312600	1.1729800	0.0889900	0.9666400	0.9890600	0.1648700	1.2619900	1.0140600	0.0313000	0.7490100	1.1689900	-0.2828200	1.0258300	0.9618900	-0.3294200	1.2929900	0.9924200	-0.1752000	0.4132900	0.6704600	-0.0923600	0.4230100	0.6667200	0.0247200	0.7003700	0.3143700	0.1228900	0.5295400	-0.1865300	0.0917700	0.4130500	0.6730600	-0.2102900	0.6880700	0.3148200	-0.2894900	0.5466900	-0.1791600	-0.2730100	0.7501200	-0.2303900	-0.3321900	0.7051700	-0.2335000	-0.3576400	0.4915800	-0.2287600	-0.2614000	0.7015700	-0.2283600	0.1981800	0.6712000	-0.2234800	0.2111200	0.5027700	-0.2232800	0.0656800
495	8.2333333	0.7236800	1.1957300	-0.0928800	0.7310500	1.1958800	0.0847100	0.9577500	1.0192500	0.1654100	1.2568200	1.0292300	0.0361300	0.7489700	1.1941200	-0.2827200	1.0137400	0.9853500	-0.3313900	1.2834300	1.0125500	-0.1787100	0.4184000	0.6787500	-0.0954300	0.4285100	0.6789100	0.0214600	0.6934200	0.3167400	0.1159700	0.5292200	-0.1865600	0.0918200	0.4139100	0.6822100	-0.2108900	0.6872200	0.3162400	-0.2890100	0.5476200	-0.1808000	-0.2730400	0.7513500	-0.2263500	-0.3314100	0.7060900	-0.2313200	-0.3571400	0.4857500	-0.2326000	-0.2597200	0.7077400	-0.2263400	0.1998200	0.6723900	-0.2234100	0.2146300	0.4972500	-0.2267600	0.0688600
496	8.2500000	0.7228400	1.2121400	-0.0932000	0.7198200	1.2204100	0.0849400	0.9413900	1.0397600	0.1601400	1.2499900	1.0457600	0.0339500	0.7476800	1.2136000	-0.2830100	1.0070300	0.9994400	-0.3343400	1.2687900	1.0274800	-0.1833300	0.4250100	0.6941000	-0.0931500	0.4280000	0.6940200	0.0220500	0.6813300	0.3163200	0.1083400	0.5296500	-0.1846900	0.0914400	0.4180000	0.6918300	-0.2131200	0.6875000	0.3168500	-0.2846900	0.5467900	-0.1812000	-0.2733600	0.7603900	-0.2230100	-0.3270600	0.7103900	-0.2299700	-0.3550700	0.4855700	-0.2344400	-0.2643200	0.7119700	-0.2245000	0.1971400	0.6820400	-0.2199500	0.2093300	0.4976800	-0.2236000	0.0679600
497	8.2666667	0.7179700	1.2390100	-0.0907000	0.7093500	1.2356500	0.0858700	0.9530200	1.0459700	0.1635500	1.2471600	1.0630100	0.0285000	0.7427500	1.2351200	-0.2852200	1.0039300	1.0196400	-0.3360600	1.2555000	1.0464000	-0.1806200	0.4308600	0.7022800	-0.0914700	0.4338300	0.7041900	0.0236700	0.6692000	0.3178600	0.1044400	0.5295000	-0.1828000	0.0910800	0.4249200	0.7031300	-0.2114200	0.6812400	0.3193000	-0.2818200	0.5420300	-0.1846800	-0.2749000	0.7610800	-0.2229300	-0.3269700	0.7116700	-0.2319500	-0.3544900	0.4799400	-0.2364800	-0.2623300	0.7114200	-0.2247500	0.1928900	0.6816700	-0.2177700	0.2096600	0.4981000	-0.2204800	0.0673800
